<svg width="100" height="155" viewBox="0 0 100 155" fill="none" xmlns="http://www.w3.org/2000/svg">
<g clip-path="url(#clip0_1064_1331)">
<path d="M77.964 131.819C77.964 135.04 77.8701 137.921 77.9857 140.795C78.123 144.197 76.6491 146.609 73.9036 148.45C69.3447 151.512 64.15 152.797 58.8541 153.491C52.9297 154.263 46.9403 154.935 40.9725 154.986C30.8431 155.072 20.6994 154.682 10.9168 151.591C8.51095 150.833 6.19898 149.627 4.00983 148.335C1.24269 146.695 -0.0144488 144.146 1.03787e-06 140.824C0.0650252 124.1 0.0289007 107.382 0.0289007 90.6573C0.0289007 80.7424 0.0650252 70.8274 0.00722595 60.9124C-0.0144488 57.6628 1.34383 55.3014 3.95925 53.5032C8.48927 50.3908 13.7057 49.286 18.9654 48.3472C30.2001 46.3468 41.5143 46.188 52.8213 47.4445C59.4032 48.1739 66.0285 49.0765 72.0179 52.2828C72.9716 52.7956 73.8892 53.3949 74.7562 54.0521C76.9453 55.6986 78.0074 57.8866 77.9785 60.6669C77.9207 66.1696 77.964 71.6723 77.964 77.175C77.964 77.8249 77.964 78.4748 77.964 79.3919C80.0448 79.3919 82.0316 79.4136 84.0185 79.3919C88.8881 79.327 92.934 81.1179 96.1491 84.7574C98.6706 87.6099 99.9277 90.9823 99.9494 94.7663C99.9928 102.009 100.043 109.26 99.9494 116.503C99.8266 124.988 93.6926 131.321 85.2034 131.819C82.8842 131.956 80.5433 131.841 77.9712 131.841L77.964 131.819ZM6.95759 67.9533C6.95759 68.011 6.92147 68.2277 6.92147 68.4443C6.92147 92.7371 6.92147 117.03 6.89257 141.33C6.89257 142.391 7.29716 142.998 8.22918 143.272C12.239 144.435 16.1983 145.952 20.2876 146.645C31.9558 148.609 43.7252 148.753 55.4295 146.97C60.0751 146.262 64.5979 144.753 69.1641 143.568C70.6091 143.193 71.1148 142.269 71.1076 140.68C71.0498 116.929 71.0715 93.1776 71.0642 69.4336C71.0642 68.8632 71.0209 68.2927 71.0064 67.9966C49.5918 74.1637 28.365 74.2214 6.95759 67.9533ZM6.89979 59.237L6.84922 59.8364C7.67286 60.3058 8.46037 60.898 9.33459 61.2229C14.7677 63.2738 20.4032 64.4581 26.1759 64.9564C36.2907 65.8374 46.4273 66.0035 56.4627 64.2703C60.9855 63.4904 65.3782 61.9523 69.8143 60.6885C70.2839 60.5513 70.6091 59.9303 70.9992 59.5331C70.6018 59.2009 70.255 58.6954 69.7999 58.5582C65.8478 57.3956 61.9319 55.9802 57.8932 55.2364C47.5471 53.3372 37.0999 53.2361 26.6527 54.2976C20.8583 54.8898 15.1001 55.7997 9.63081 57.9516C8.69879 58.3199 7.81013 58.8038 6.89979 59.237ZM78.0507 124.815C80.2399 124.815 82.3495 124.851 84.452 124.815C89.5311 124.713 93.0858 121.218 93.1291 116.156C93.1869 109.137 93.1869 102.125 93.1291 95.1057C93.093 90.8884 90.6004 87.4077 86.6122 86.6206C83.8451 86.0717 80.9335 86.2884 78.0579 86.1656V124.822L78.0507 124.815Z" fill="#7581E5"/>
<path d="M62.9723 0C63.9405 0.816018 65.1543 1.37929 65.5516 2.2964C65.9562 3.24241 66.0357 4.96832 65.4505 5.58936C63.0301 8.14573 63.6515 10.6949 64.8147 13.439C65.9562 16.1398 67.1555 18.8334 68.0587 21.6209C69.4964 26.062 68.7595 30.2288 65.7756 33.8828C63.8827 36.2081 61.0722 36.237 59.7789 34.02C59.0709 32.7996 58.8686 31.4781 59.8006 30.3515C62.3004 27.3185 61.838 24.1339 60.5086 20.8409C59.3671 18.0246 58.1316 15.2299 57.1996 12.3414C55.8991 8.31182 56.8528 4.68669 59.9162 1.74758C60.6459 1.0471 61.7224 0.707697 62.9723 0.0144428V0Z" fill="#FFD700"/>
<path d="M38.227 25.405C37.6996 23.7007 37.2878 22.0759 36.6953 20.5161C35.6622 17.8297 34.3472 15.2373 33.4658 12.5076C32.1147 8.34805 33.1985 4.67236 36.3269 1.62494C37.7429 0.245649 39.9321 0.0651141 41.2181 1.19887C42.4969 2.32541 42.8654 4.52794 41.6516 5.92166C39.4841 8.40582 40.0621 10.9044 41.1242 13.533C42.2874 16.3999 43.6023 19.2235 44.5271 22.1626C45.9288 26.6182 44.7511 30.6477 41.7889 34.179C40.5245 35.6882 38.9495 36.0204 37.4323 35.2261C36.0017 34.4823 35.2359 32.9369 35.6838 31.3915C35.9078 30.6261 36.4858 29.9761 36.7965 29.2323C37.3094 27.9975 37.7429 26.7337 38.2342 25.4122L38.227 25.405Z" fill="#FFD700"/>
<path d="M19.0521 3.48061C18.503 4.62159 18.2863 5.51704 17.7516 6.12364C16.2705 7.799 16.0827 9.63323 16.834 11.6047C17.6071 13.6411 18.4813 15.627 19.3266 17.6345C20.4682 20.3642 21.3496 23.13 21.3207 26.1486C21.2846 29.3332 19.9841 31.9546 17.9467 34.251C16.5234 35.8613 14.5943 36.0563 13.1349 34.9226C11.726 33.8321 11.4298 31.7957 12.6653 30.1203C14.6088 27.4701 14.6882 24.6971 13.5395 21.7724C12.304 18.6311 10.8663 15.562 9.82588 12.3629C8.44592 8.13119 9.53688 4.41217 12.8676 1.40807C14.0308 0.360965 15.5119 0.0360022 16.7907 0.794249C17.7372 1.3503 18.3007 2.54183 19.0593 3.47339L19.0521 3.48061Z" fill="#FFD700"/>
<path d="M37.9091 129.444C32.83 128.418 30.2579 124.497 30.2579 118.843V115.889H36.941V119.29C36.941 122.056 38.3571 123.212 40.604 123.212C42.851 123.212 44.267 122.056 44.267 119.168C44.267 115.954 42.981 113.643 38.227 109.917C32.4399 105.353 30.453 101.757 30.453 96.8751C30.453 91.4157 32.9601 87.5595 37.9091 86.4691V82.5479H43.6963V86.4691C48.7104 87.4945 51.2824 91.3507 51.2824 97.0051V98.2905H44.5994V96.5574C44.5994 93.7916 43.3133 92.5711 41.0664 92.5711C38.8195 92.5711 37.5334 93.7916 37.5334 96.4274C37.5334 99.3809 38.8195 101.634 43.5734 105.418C49.3606 110.047 51.3475 113.578 51.3475 118.713C51.3475 124.497 48.7104 128.411 43.6963 129.444V133.943H37.9091V129.444Z" fill="#9C65AD"/>
</g>
<defs>
<clipPath id="clip0_1064_1331">
<rect width="100" height="155" fill="white"/>
</clipPath>
</defs>
</svg>
