<svg width="167" height="151" viewBox="0 0 167 151" fill="none" xmlns="http://www.w3.org/2000/svg">
<g clip-path="url(#clip0_1064_1342)">
<path d="M70.3995 109.203C84.1225 118.395 97.6518 127.456 111.285 136.586C108.235 141.154 105.247 145.62 102.21 150.167C95.1894 145.461 88.2864 140.831 81.3834 136.207C73.3253 130.806 65.2465 125.447 57.2299 119.984C56.0125 119.151 55.2309 119.255 54.0689 120.032C39.7441 129.685 25.3848 139.29 11.0323 148.901C10.4582 149.287 9.89107 149.665 9.1648 150.147C6.11448 145.626 3.09182 141.147 0.00691223 136.572C13.6538 127.449 27.2039 118.395 40.9061 109.237C40.332 108.817 39.9101 108.473 39.4605 108.177C28.9193 101.118 18.3711 94.073 7.82985 87.0002C5.12537 85.1907 2.71139 83.106 1.6047 79.8929C0.110665 75.5515 1.74304 72.1183 6.12139 70.7422C7.34567 70.357 7.152 69.5726 7.152 68.747C7.152 56.2732 7.13817 43.7925 7.15892 31.3186C7.17275 24.0531 7.07591 16.7739 7.40101 9.52213C7.49784 7.37551 8.48003 5.02247 9.71814 3.21986C12.8446 -1.32108 18.5924 -0.928909 21.5528 3.73587C23.3512 6.5774 23.7801 9.68726 23.5449 12.976C44.9525 16.9528 66.2494 16.9734 87.6017 13.0173C87.7815 11.2491 87.6293 9.28132 88.238 7.57503C88.9643 5.53161 89.9672 3.3437 91.4889 1.86446C95.1756 -1.71325 100.951 0.054961 102.929 5.3596C103.766 7.60943 104.14 10.1482 104.147 12.5563C104.244 31.2154 104.209 49.8746 104.181 68.5268C104.181 69.8203 104.389 70.4808 105.855 70.9211C110.033 72.1802 111.451 76.7556 109.251 81.1176C107.965 83.6633 105.869 85.4246 103.566 86.9727C93.2181 93.9079 82.8567 100.829 72.5022 107.758C71.8866 108.171 71.271 108.597 70.3995 109.196V109.203ZM23.6486 18.2531V52.1106C45.0286 55.9223 66.3393 55.9016 87.6432 52.1313V18.26C66.284 21.9753 45.0493 21.9684 23.6486 18.26V18.2531ZM23.6486 77.7257C45.0286 83.5394 66.3393 83.5394 87.6432 77.7532V57.2364C66.2494 61.1237 44.9871 61.0343 23.6486 57.2708V77.7257ZM104.161 137.989C103.545 137.57 103.082 137.239 102.604 136.923C93.3426 130.731 84.081 124.545 74.8263 118.346C54.6015 104.792 34.3974 91.2178 14.1449 77.7188C12.6647 76.728 10.8802 76.0882 9.15096 75.6134C8.37628 75.4002 6.87533 75.751 6.59174 76.2946C6.22514 77.017 6.4119 78.4206 6.93066 79.1017C7.98202 80.4846 9.26855 81.785 10.7073 82.7551C35.5318 99.4396 60.3978 116.069 85.2569 132.705C90.403 136.146 95.5491 139.579 100.827 143.108C101.947 141.388 103.005 139.771 104.167 137.996L104.161 137.989ZM18.4334 74.2236V72.0426C18.4334 54.9453 18.4334 37.8411 18.4334 20.7438C18.4334 17.4825 18.5164 14.2213 18.378 10.967C18.3227 9.57717 17.963 8.13233 17.4097 6.85261C17.1053 6.14395 16.1162 5.31144 15.4245 5.30456C14.7398 5.29768 13.7161 6.12331 13.4325 6.81821C12.8653 8.20801 12.4157 9.76294 12.4088 11.2559C12.3258 21.8377 12.3673 32.4126 12.3673 42.9944C12.3673 51.801 12.3535 60.6077 12.4019 69.4144C12.4019 70.0336 12.6716 70.928 13.1281 71.2239C14.7398 72.2834 16.4897 73.1434 18.4472 74.2168L18.4334 74.2236ZM92.9138 74.2787C94.726 73.2191 96.1993 72.2009 97.804 71.4853C98.7862 71.045 99.0075 70.529 99.0006 69.5657C98.9799 50.0053 99.0006 30.4449 98.9453 10.8913C98.9453 9.61845 98.6133 8.24929 98.0599 7.10718C97.6726 6.30219 96.6281 5.30456 95.9019 5.31832C95.1549 5.33896 94.062 6.36412 93.7922 7.17598C93.2527 8.76531 92.9553 10.506 92.9484 12.1848C92.8931 32.2612 92.9138 52.3308 92.9138 72.4073C92.9138 72.9646 92.9138 73.5219 92.9138 74.2787V74.2787ZM60.3563 102.46C61.8641 103.478 63.2683 104.338 64.5755 105.336C65.454 106.003 66.0972 105.921 66.9895 105.315C73.5951 100.843 80.2491 96.4398 86.8823 92.009C91.6065 88.851 96.3861 85.7755 101.013 82.4799C102.501 81.4203 103.822 79.9411 104.762 78.3862C105.8 76.6661 104.894 75.2763 102.929 75.579C101.069 75.868 99.0975 76.4872 97.5412 77.5124C85.5612 85.4109 73.6643 93.4401 61.7466 101.435C61.3315 101.71 60.9442 102.027 60.3494 102.46H60.3563ZM10.5551 143.005C24.0706 133.992 37.51 125.034 51.0877 115.98C49.6213 114.975 48.2034 114.115 46.9238 113.09C45.9485 112.312 45.2361 112.395 44.2193 113.076C32.2878 121.112 20.3216 129.107 8.36936 137.109C7.96127 137.384 7.58084 137.694 7.14508 138.024C8.30711 139.716 9.39997 141.313 10.5551 142.998V143.005ZM66.3878 92.181H44.9387C48.3141 94.4171 51.7656 96.7219 55.2447 98.9786C55.4799 99.13 56.0333 99.0474 56.303 98.8754C59.6923 96.66 63.0608 94.4033 66.3878 92.1879V92.181Z" fill="#7581E5"/>
<path d="M30.026 24.9338H35.9883C40.083 24.9338 41.8399 26.8259 41.8399 30.6857V31.6833C41.8399 34.2565 41.0514 35.8665 39.2876 36.5752V36.644C41.4042 37.3595 42.2342 39.2172 42.2342 41.8592V44.0058C42.2342 47.8656 40.1868 49.9365 36.2373 49.9365H30.026V24.9338ZM35.5179 35.1165C36.9912 35.1165 37.8904 34.4767 37.8904 32.4745V31.0779C37.8904 29.289 37.2817 28.5047 35.8776 28.5047H33.9755V35.1165H35.5179V35.1165ZM36.2373 46.3726C37.5653 46.3726 38.2847 45.7671 38.2847 43.9095V41.7284C38.2847 39.4029 37.5307 38.6943 35.7324 38.6943H33.9755V46.3726H36.2373V46.3726Z" fill="#9C65AD"/>
<path d="M44.247 44.0128V30.8647C44.247 26.8604 46.3635 24.5762 50.2439 24.5762C54.1242 24.5762 56.2408 26.8604 56.2408 30.8647V44.0128C56.2408 48.0171 54.1242 50.3013 50.2439 50.3013C46.3635 50.3013 44.247 48.0171 44.247 44.0128ZM52.2913 44.2605V30.6101C52.2913 28.8213 51.5027 28.147 50.2439 28.147C48.985 28.147 48.1965 28.8281 48.1965 30.6101V44.2605C48.1965 46.0493 48.985 46.7236 50.2439 46.7236C51.5027 46.7236 52.2913 46.0424 52.2913 44.2605Z" fill="#9C65AD"/>
<path d="M58.219 44.0128V42.5817H61.9541V44.2949C61.9541 46.0837 62.7426 46.7236 64.0015 46.7236C65.2603 46.7236 66.0488 46.0837 66.0488 44.2261C66.0488 42.1551 65.2603 40.8341 62.6734 38.5843C59.3672 35.6877 58.2951 33.6512 58.2951 30.7959C58.2951 26.8673 60.3424 24.5762 64.1882 24.5762C68.034 24.5762 69.9361 26.8604 69.9361 30.8647V31.9036H66.201V30.617C66.201 28.8281 65.4817 28.1539 64.2228 28.1539C62.9639 28.1539 62.2446 28.835 62.2446 30.5482C62.2446 32.3715 63.0677 33.6925 65.6546 35.9423C68.9608 38.8389 69.9983 40.8341 69.9983 43.944C69.9983 48.0171 67.9164 50.3013 64.036 50.3013C60.1557 50.3013 58.219 48.0171 58.219 44.0128V44.0128Z" fill="#9C65AD"/>
<path d="M71.5754 44.0128V42.5817H75.3105V44.2949C75.3105 46.0837 76.099 46.7236 77.3578 46.7236C78.6167 46.7236 79.4052 46.0837 79.4052 44.2261C79.4052 42.1551 78.6167 40.8341 76.0298 38.5843C72.7236 35.6877 71.6515 33.6512 71.6515 30.7959C71.6515 26.8673 73.6988 24.5762 77.5446 24.5762C81.3904 24.5762 83.2925 26.8604 83.2925 30.8647V31.9036H79.5574V30.617C79.5574 28.8281 78.8381 28.1539 77.5792 28.1539C76.3203 28.1539 75.601 28.835 75.601 30.5482C75.601 32.3715 76.4241 33.6925 79.011 35.9423C82.3172 38.8389 83.3547 40.8341 83.3547 43.944C83.3547 48.0171 81.2728 50.3013 77.3924 50.3013C73.5121 50.3013 71.5754 48.0171 71.5754 44.0128V44.0128Z" fill="#9C65AD"/>
<path d="M125.713 148.248H162.981C163.673 148.248 164.24 147.691 164.24 146.996V141.368C164.24 140.68 163.68 140.116 162.981 140.116H161.598C161.218 140.116 160.851 139.944 160.609 139.648C154.515 132.031 150.628 120.569 150.628 107.744C150.628 105.577 150.745 103.444 150.96 101.366C151.029 100.733 151.569 100.252 152.212 100.252H153.049C153.74 100.252 154.308 99.6943 154.308 98.9994V94.9951C154.308 94.3071 153.747 93.7429 153.049 93.7429H135.916C135.224 93.7429 134.657 94.3002 134.657 94.9951V98.9994C134.657 99.6874 135.217 100.252 135.916 100.252H136.905C137.548 100.252 138.095 100.726 138.157 101.366C138.371 103.444 138.489 105.577 138.489 107.744C138.489 120.569 134.608 132.031 128.508 139.648C128.273 139.944 127.906 140.116 127.519 140.116H125.7C125.008 140.116 124.441 140.673 124.441 141.368V146.996C124.441 147.684 125.001 148.248 125.7 148.248H125.713Z" stroke="#FFD700" stroke-width="8" stroke-miterlimit="10"/>
<path d="M136.296 114.666H125.084C124.011 114.666 123.14 115.531 123.14 116.599V120.589C123.14 121.657 124.011 122.523 125.084 122.523H136.296C137.37 122.523 138.24 121.657 138.24 120.589V116.599C138.24 115.531 137.37 114.666 136.296 114.666Z" fill="#FFD700"/>
</g>
<defs>
<clipPath id="clip0_1064_1342">
<rect width="167" height="151" fill="white"/>
</clipPath>
</defs>
</svg>