<svg width="338" height="208" viewBox="0 0 338 208" fill="none" xmlns="http://www.w3.org/2000/svg">
<g clip-path="url(#clip0_1064_1108)">
<path d="M199.727 138.121C201.047 123.024 202.343 107.927 203.704 92.8386C204.343 85.7035 207.796 80.4175 214.668 77.9791C217.16 77.0954 220.072 76.8499 222.737 77.0545C235.25 77.9791 247.739 79.1738 260.245 80.2375C261.983 80.3848 263.263 81.0721 264.386 82.4141C275.932 96.169 287.511 109.899 299.114 123.613C300.238 124.947 300.681 126.33 300.525 128.073C298.622 149.462 296.769 170.851 294.875 192.24C294.145 200.505 288.847 206.413 280.877 207.787C279.188 208.074 277.408 208.057 275.694 207.91C254.431 206.093 233.167 204.236 211.912 202.37C204.712 201.74 199.308 198.402 196.816 191.463C195.922 188.976 195.643 186.071 195.848 183.42C197.021 168.315 198.415 153.226 199.743 138.129L199.727 138.121ZM293.636 129.775L291.406 129.578C280.582 128.637 269.757 127.688 258.933 126.747C255.029 126.404 254.103 125.291 254.447 121.347C255.398 110.488 256.35 99.622 257.301 88.7637L257.49 86.6526L255.841 86.5053C244.574 85.5234 233.29 84.6315 222.031 83.5187C215.725 82.8968 210.797 87.3972 210.297 93.3951C207.779 123.646 205.057 153.881 202.425 184.131C202.334 185.179 202.277 186.267 202.449 187.298C203.302 192.191 206.918 195.268 212.314 195.743C233.569 197.608 254.841 199.351 276.088 201.364C282.812 202.002 287.847 197.575 288.339 191.136C289.856 171.35 291.726 151.589 293.456 131.812L293.636 129.767V129.775ZM288.716 122.582C280.426 112.722 272.012 102.715 263.73 92.8714L261.335 120.193L288.708 122.582H288.716Z" fill="#9C65AD"/>
<path d="M232.986 109.107L237.402 118.602L243.401 110.014L251.878 110.752L241.039 124.451L249.047 139.384L240.57 138.645L236.441 129.582L230.801 137.794L222.284 137.052L232.764 123.73L224.468 108.364L232.986 109.107Z" fill="#9C65AD"/>
<path d="M249.179 145.673L220.635 143.186L219.573 155.324L248.116 157.811L249.179 145.673Z" stroke="#9C65AD" stroke-width="3" stroke-miterlimit="10"/>
<path d="M277.443 148.134L248.9 145.647L247.838 157.784L276.381 160.271L277.443 148.134Z" stroke="#9C65AD" stroke-width="3" stroke-miterlimit="10"/>
<path d="M248.104 157.955L219.56 155.468L218.498 167.605L247.041 170.092L248.104 157.955Z" stroke="#9C65AD" stroke-width="3" stroke-miterlimit="10"/>
<path d="M276.368 160.415L247.825 157.928L246.763 170.066L275.306 172.552L276.368 160.415Z" stroke="#9C65AD" stroke-width="3" stroke-miterlimit="10"/>
<path d="M247.029 170.236L218.486 167.749L217.424 179.887L245.967 182.373L247.029 170.236Z" stroke="#9C65AD" stroke-width="3" stroke-miterlimit="10"/>
<path d="M275.293 172.696L246.75 170.209L245.688 182.347L274.231 184.834L275.293 172.696Z" stroke="#9C65AD" stroke-width="3" stroke-miterlimit="10"/>
<path d="M176.462 75.017C170.747 66.4008 167.147 57.0563 165.687 46.869C165.285 44.046 165.236 41.1658 164.801 38.351C164.285 35.0043 161.07 33.9406 158.536 36.1662C157.774 36.8372 157.077 37.5982 156.355 38.3182C149.811 44.8643 143.259 51.4103 136.633 58.0382C131.041 52.4413 125.555 46.9426 120.061 41.4521C117.092 38.4901 115.526 38.4982 112.524 41.4931C108.433 45.5762 104.341 49.6593 99.9452 54.0451C91.8761 45.8625 83.889 37.7536 75.8937 29.6611C73.7371 27.4763 71.8756 27.46 69.7435 29.5711C63.2981 35.9453 56.8608 42.3277 50.4318 48.7183C47.6437 51.4922 47.6601 53.1859 50.4564 55.968C57.8449 63.3241 65.2415 70.6721 72.6382 78.0282C73.1548 78.5437 73.6387 79.0919 73.9421 79.4192C69.7517 83.6087 65.6762 87.6836 61.576 91.7913C53.7857 84.0342 45.8642 76.1462 37.9509 68.2582C34.966 65.288 34.064 65.2307 31.0627 68.1846C24.6501 74.4933 18.262 80.8266 11.8904 87.1763C9.4631 89.5902 9.4631 91.6358 11.874 94.0415C17.1304 99.2865 22.4196 104.507 27.6842 109.752C30.3821 112.436 33.0554 115.152 35.8517 117.967C31.8745 121.936 27.9548 125.904 23.9448 129.783C23.7316 129.987 18.2046 135.625 17.77 135.601C17.3846 136.288 16.2366 137.409 15.7855 138.039C14.6785 139.577 19.2051 134.954 17.8848 136.304C18.8688 136.632 19.8447 136.959 20.8205 137.303C22.9034 138.031 24.9863 138.612 27.0691 139.062C29.2996 136.853 22.3376 142.31 24.6337 140.175C24.5189 140.167 25.0519 139.88 24.9371 139.872C24.5353 139.823 28.291 135.912 32.2845 132.36C60.3378 104.245 88.2434 76.2771 115.969 48.4973C120.979 53.5051 125.916 58.4473 130.959 63.4878C130.918 63.5287 130.532 63.9706 130.122 64.3797C109.589 84.9016 89.0552 105.415 68.5463 125.97C67.7836 126.739 61.7072 132.868 60.797 133.17C58.9191 136.214 61.8384 133.269 59.2553 135.805C63.1177 135.102 66.9636 134.962 70.826 135.347C71.646 134.627 72.507 133.964 73.4009 133.326C74.8359 131.804 70.8096 134.84 72.4004 133.473C72.0806 133.367 77.296 128.776 76.9844 128.686C104.021 101.709 131.172 74.6243 158.356 47.5072C159.709 57.1954 162.702 66.6463 168.319 75.7207C167.704 76.1626 166.95 76.5472 166.384 77.1199C149.787 93.6651 133.197 110.21 116.657 126.796C115.682 127.77 107.736 135.478 106.579 136.059C103.283 139.725 106.71 136.239 103.193 139.692C106.678 139.185 110.163 138.276 113.648 136.934C115.805 136.108 118.01 135.494 120.257 135.102C121.528 133.375 122.881 131.714 124.276 130.127C126.211 127.917 128.359 125.692 130.729 123.785C144.522 110.022 158.348 96.2262 172.206 82.4059C175.339 89.2056 174.576 96.0871 171.304 102.813C168.18 109.245 163.694 114.711 158.635 119.71C155.002 123.302 151.419 126.935 147.737 130.47C147.384 130.806 141.75 136.321 141.209 136.354C140.143 137.63 141.037 136.763 139.84 137.875C138.921 138.726 140.889 136.378 139.889 137.147C141.595 137.605 143.3 138.08 145.014 138.522C146.4 138.882 147.769 139.152 149.122 139.357C151.435 136.394 154.018 134.823 157.085 131.444C159.299 129.284 161.521 127.132 163.711 124.947C169.385 119.285 174.511 113.213 177.938 105.89C182.875 95.3507 183.063 84.9343 176.479 75.0088L176.462 75.017ZM27.2988 98.5746C24.7321 96.0053 21.9604 93.2314 19.2871 90.5557C24.2728 85.5807 29.357 80.5075 34.4658 75.4098C37.1801 78.1182 39.9272 80.843 42.4775 83.3878C37.4179 88.4446 32.3091 93.5669 27.2988 98.5746V98.5746ZM41.0015 112.436C38.2544 109.777 35.5155 107.134 32.998 104.703C38.1806 99.532 43.2975 94.4261 48.2177 89.5165C50.7106 91.9386 53.5151 94.6715 56.1884 97.2818C51.1534 102.306 46.0692 107.379 41.0015 112.436V112.436ZM57.4677 52.3022C62.6421 47.1227 67.7344 42.0413 72.548 37.2218C75.3361 39.8893 78.1734 42.5977 80.8959 45.1998C75.8035 50.273 70.7111 55.338 65.7992 60.2393C63.1833 57.7436 60.3542 55.0434 57.4759 52.294L57.4677 52.3022ZM79.4773 74.1251C76.6974 71.4658 73.8519 68.7574 71.0802 66.1144C76.2546 60.9676 81.3551 55.878 86.2917 50.9685C89.047 53.6196 91.8679 56.3444 94.5822 58.9547C89.58 63.9787 84.4713 69.1174 79.4773 74.1333V74.1251Z" fill="#7581E5"/>
<path d="M80.9042 104.638C77.5011 104.654 74.7622 102.028 74.6884 98.6727C74.6146 95.3015 77.4519 92.3885 80.8304 92.3639C84.1926 92.3394 86.9315 95.0233 86.9889 98.3945C87.0463 101.921 84.414 104.613 80.9042 104.638Z" fill="#7581E5"/>
<path d="M93.8525 79.411C93.8771 76.048 96.5668 73.3641 99.9453 73.3232C103.348 73.2823 106.178 76.1134 106.153 79.5338C106.128 82.8559 103.389 85.5889 100.027 85.6216C96.5996 85.6543 93.8279 82.8722 93.8443 79.411H93.8525Z" fill="#7581E5"/>
<path d="M67.9232 117.656C67.8822 121.077 65.0121 123.859 61.6089 123.761C58.255 123.671 55.5735 120.897 55.5899 117.558C55.6145 114.13 58.4436 111.405 61.896 111.479C65.2581 111.552 67.956 114.318 67.915 117.648L67.9232 117.656Z" fill="#7581E5"/>
<path d="M3.28003 134.25C18.344 134.25 18.344 142.433 33.4079 142.433C48.4719 142.433 48.4719 134.25 63.5358 134.25C78.5998 134.25 78.5998 142.433 93.6637 142.433C108.728 142.433 108.728 134.25 123.792 134.25C138.856 134.25 138.856 142.433 153.92 142.433C168.984 142.433 168.984 134.25 184.047 134.25C199.111 134.25 199.111 142.433 214.175 142.433C229.239 142.433 229.239 134.25 244.311 134.25C259.384 134.25 259.375 142.433 274.439 142.433C289.503 142.433 289.503 134.25 304.575 134.25C319.648 134.25 319.639 142.433 334.712 142.433" stroke="#7581E5" stroke-width="8" stroke-miterlimit="10" stroke-linecap="round"/>
</g>
<circle cx="260" cy="18" r="15" stroke="#FFD708" stroke-width="6"/>
<defs>
<clipPath id="clip0_1064_1108">
<rect width="338" height="180" fill="white" transform="translate(0 28)"/>
</clipPath>
</defs>
</svg>
