<svg width="245" height="251" viewBox="0 0 245 251" fill="none" xmlns="http://www.w3.org/2000/svg">
<g clip-path="url(#clip0_1064_1892)">
<path d="M184.319 243.535C184.065 225.597 190.424 225.509 190.169 207.571C189.915 189.633 183.547 189.72 183.285 171.782C183.022 153.844 189.389 153.748 189.135 135.81" stroke="#7581E5" stroke-width="8" stroke-linecap="round" stroke-linejoin="round"/>
<path d="M241.816 59.1707C241.816 28.2444 218.297 3.18335 189.278 3.18335C160.258 3.18335 136.739 28.2523 136.739 59.1707C136.739 87.5424 155.793 123.101 181.35 128.767C179.408 130.478 178.175 132.977 178.175 135.77H196.831C196.831 133.136 195.733 130.757 193.974 129.061C220.47 124.461 241.816 88.0836 241.816 59.1707V59.1707Z" stroke="#9C65AD" stroke-width="8" stroke-linecap="round" stroke-linejoin="round"/>
<path d="M59.336 126.817C60.6174 126.817 61.867 127.104 63.0529 127.629C62.0739 124.04 60.88 120.673 59.4315 117.633H58.6355C56.9562 121.047 55.8737 124.453 54.9345 127.868C54.9266 127.899 54.9186 127.939 54.9106 127.971C56.3115 127.223 57.7919 126.817 59.328 126.817H59.336Z" fill="#9C65AD"/>
<path d="M59.3359 181.897C57.3143 181.897 55.3961 181.197 53.6292 179.931C54.1545 183.099 54.7594 186.226 55.4518 189.283C56.3034 192.697 57.2506 196.103 58.6434 199.517H59.4394C61.5486 193.938 63.2518 187.38 64.4537 180.337C62.8539 181.348 61.1347 181.897 59.3359 181.897Z" fill="#9C65AD"/>
<path d="M116.793 126.817C118.075 126.817 119.324 127.104 120.51 127.629C119.531 124.04 118.337 120.673 116.889 117.633H116.093C114.413 121.047 113.331 124.453 112.392 127.868C112.384 127.899 112.376 127.939 112.368 127.971C113.769 127.223 115.249 126.817 116.785 126.817H116.793Z" fill="#9C65AD"/>
<path d="M116.793 181.897C114.772 181.897 112.853 181.197 111.086 179.931C111.612 183.099 112.217 186.226 112.909 189.283C113.761 192.697 114.708 196.103 116.101 199.517H116.897C119.006 193.938 120.709 187.38 121.911 180.337C120.311 181.348 118.592 181.897 116.793 181.897Z" fill="#9C65AD"/>
<path d="M10.1958 173.199C10.6972 168.463 11.1827 164.198 11.5488 159.916C11.6045 159.216 11.318 158.205 10.8166 157.783C6.84493 154.425 4.9188 150.095 4.3537 145.026C4.26615 144.27 4.09105 143.442 3.68513 142.829C1.08247 138.858 0.676552 134.616 1.76696 130.096C2.02166 129.053 2.07737 127.891 1.93411 126.825C1.1541 121.063 3.51799 116.296 8.77106 113.471C9.74208 112.946 10.1719 112.388 10.3231 111.242C11.2782 104.056 16.1094 99.1696 23.3125 97.9121C23.8299 97.8246 24.395 97.7848 24.8566 97.554C30.0778 94.9914 35.3787 95.5326 40.7193 97.0845C41.3719 97.2755 42.2156 97.4267 42.7966 97.1879C48.5034 94.7686 53.5654 96.2727 58.2295 99.7585C59.3517 100.594 60.1875 100.65 61.4211 100.204C78.8995 93.9727 96.4018 93.9807 113.888 100.156C115.209 100.626 116.093 100.602 117.255 99.7028C121.847 96.1692 126.87 94.8641 132.505 97.1561C133.149 97.4187 134.065 97.2834 134.773 97.0765C140.05 95.5167 145.271 94.9357 150.421 97.5142C150.763 97.6893 151.185 97.7052 151.575 97.7768C159.303 99.0979 163.848 103.563 165.106 111.242C165.289 112.349 165.647 112.93 166.666 113.439C171.656 115.906 174.275 121.254 173.431 126.833C173.296 127.708 173.312 128.687 173.566 129.523C174.848 133.669 174.354 137.577 172.492 141.453C171.736 143.012 171.163 144.731 170.876 146.435C170.112 150.915 168.17 154.663 164.739 157.688C164.182 158.181 163.737 159.263 163.856 159.972C170.542 201.268 143.87 239.978 102.96 248.27C61.2938 256.714 20.3835 229.624 12.0423 187.938C11.0474 182.964 10.7688 177.854 10.2037 173.215L10.1958 173.199ZM161.174 172.737C161.174 132.221 128.199 99.2491 87.6865 99.273C47.2219 99.2969 14.3027 132.157 14.2549 172.594C14.2072 213.086 47.1264 246.161 87.7263 246.026C128.859 245.891 160.959 213.007 161.166 172.745L161.174 172.737Z" fill="#7581E5" stroke="#7581E5" stroke-width="3" stroke-miterlimit="10"/>
<path d="M89.1029 228C77.5953 227.847 69.1097 224.814 61.5583 219.969C57.6021 217.431 54.1343 214.531 51.7634 210.927C50.6876 209.296 49.7888 207.602 50.0436 205.684C50.3126 203.642 52.0182 202.687 54.5872 203.091C58.3877 203.684 61.714 205.127 65.0474 206.57C70.1996 208.808 75.3448 211.025 81.0065 212.419C86.4065 213.75 91.6932 213.395 96.7605 211.659C101.354 210.083 105.798 208.243 110.243 206.423C113.484 205.099 116.605 203.6 120.285 203.119C122.932 202.77 125.154 203.983 124.992 206.068C124.864 207.685 124.475 209.498 123.406 210.829C115.105 221.182 103.356 227.233 89.11 228H89.1029ZM86.6896 225.699C93.2643 225.665 98.6572 224.431 103.774 222.339C110.929 219.411 116.676 215.333 120.519 209.707C121.134 208.808 121.672 207.839 121.991 206.849C122.401 205.545 121.771 205.078 120.151 205.447C118.792 205.754 117.454 206.166 116.202 206.667C111.46 208.564 106.761 210.523 102.04 212.454C92.5495 216.33 83.0094 216.476 73.4551 212.607C69.0389 210.822 64.6794 208.947 60.249 207.197C58.4514 206.486 56.5405 205.915 54.6155 205.434C53.285 205.106 52.6339 205.608 52.9099 206.695C53.1505 207.616 53.5469 208.55 54.106 209.379C56.3636 212.726 59.3785 215.612 63.0941 218.024C70.1642 222.611 78.119 225.518 86.6896 225.699Z" fill="#FFD708" stroke="#FFD708" stroke-width="3" stroke-miterlimit="10"/>
<path d="M42.3748 153.812C42.4623 145.854 43.9746 138.285 48.8297 131.736C54.7115 123.801 63.8009 123.658 69.8499 131.465C74.9915 138.094 76.5675 145.893 76.5675 154.043C76.5675 161.85 74.9438 169.315 70.2001 175.753C64.0715 184.07 54.815 184.062 48.6944 175.738C44.269 169.713 42.6533 162.749 42.3827 155.404C42.3668 154.879 42.3827 154.345 42.3827 153.812H42.3748ZM72.4764 152.435C72.2615 150.764 72.0466 147.525 71.386 144.365C70.3911 139.582 68.6401 135.086 64.8913 131.688C61.4927 128.608 57.728 128.369 54.3931 131.465C52.4591 133.264 50.7319 135.556 49.6813 137.959C45.5027 147.509 45.439 157.346 48.6148 167.198C49.8246 170.962 51.695 174.385 55.014 176.764C57.9429 178.865 61.246 178.961 63.984 176.637C65.6634 175.212 67.1756 173.438 68.2899 171.543C71.4736 166.156 72.3173 160.147 72.4685 152.427L72.4764 152.435Z" fill="#7581E5" stroke="#7581E5" stroke-miterlimit="10"/>
<path d="M98.519 153.868C98.9329 146.419 100.294 139.344 104.409 133.033C106.868 129.252 110.028 126.308 114.772 125.806C119.667 125.289 123.32 127.621 126.233 131.274C130.499 136.646 132.29 142.973 132.887 149.658C133.611 157.791 132.553 165.67 128.509 172.888C127.3 175.045 125.692 177.09 123.861 178.746C119.094 183.059 112.877 182.996 108.022 178.778C103.645 174.973 101.408 169.896 100.135 164.413C99.3309 160.959 99.0444 157.377 98.527 153.86L98.519 153.868ZM102.865 155.133C103.159 157.202 103.43 160.64 104.17 163.983C105.149 168.416 106.892 172.562 110.299 175.777C113.888 179.16 118.099 179.231 121.577 175.737C123.089 174.217 124.498 172.411 125.365 170.469C130.276 159.502 130.268 148.4 125.469 137.426C124.45 135.094 122.619 132.953 120.717 131.202C117.804 128.528 114.063 128.488 111.198 131.218C109.097 133.216 107.322 135.731 106.009 138.325C103.581 143.124 103.104 148.44 102.865 155.125V155.133Z" fill="#7581E5" stroke="#7581E5" stroke-miterlimit="10"/>
<path d="M87.7502 189.561C82.5926 189.585 78.3424 185.455 78.2628 180.329C78.1832 175.172 82.4653 170.787 87.6387 170.731C92.8122 170.676 97.1022 174.981 97.0943 180.218C97.0863 185.367 92.9157 189.537 87.7502 189.561Z" fill="#7581E5" stroke="#7581E5" stroke-miterlimit="10"/>
<path d="M72.0307 122.122C71.2985 121.732 70.4468 121.469 69.8499 120.92C68.7356 119.901 67.8123 118.668 66.7378 117.601C62.1931 113.121 56.3113 113.24 51.878 117.864C50.8752 118.914 49.9758 120.068 48.9092 121.039C48.3521 121.541 47.5323 121.756 46.6409 121.843C49.0525 117.792 51.3846 113.718 55.7223 111.505C59.0652 109.794 62.4478 110.28 65.1142 112.771C67.868 115.349 70.1842 118.405 72.6913 121.246L72.0307 122.114V122.122Z" fill="#7581E5" stroke="#7581E5" stroke-miterlimit="10"/>
<path d="M128.645 122.042C127.952 121.748 127.116 121.604 126.583 121.127C125.509 120.156 124.609 119.002 123.614 117.935C119.117 113.121 112.774 113.121 108.277 117.935C107.33 118.954 106.47 120.06 105.451 120.991C104.894 121.501 104.09 121.74 103.183 121.819C105.794 117.522 108.181 113.073 113.148 111.107C116.173 109.913 119.205 110.486 121.489 112.659C124.283 115.309 126.663 118.389 129.226 121.286L128.645 122.026V122.042Z" fill="#7581E5" stroke="#7581E5" stroke-miterlimit="10"/>
<path d="M59.2164 171.535C62.3506 171.535 64.8913 163.379 64.8913 153.319C64.8913 143.258 62.3506 135.102 59.2164 135.102C56.0823 135.102 53.5415 143.258 53.5415 153.319C53.5415 163.379 56.0823 171.535 59.2164 171.535Z" fill="#9C65AD"/>
<path d="M115.631 171.535C118.765 171.535 121.306 163.379 121.306 153.319C121.306 143.258 118.765 135.102 115.631 135.102C112.497 135.102 109.956 143.258 109.956 153.319C109.956 163.379 112.497 171.535 115.631 171.535Z" fill="#9C65AD"/>
<ellipse cx="115.5" cy="153" rx="2.5" ry="8" fill="#FFD708"/>
<ellipse cx="59.5" cy="153" rx="2.5" ry="8" fill="#FFD708"/>
<path d="M189.708 21.0737C210.449 21.0737 227.259 36.6563 227.259 55.8838" stroke="#9C65AD" stroke-width="8" stroke-linecap="round" stroke-linejoin="round"/>
</g>
<defs>
<clipPath id="clip0_1064_1892">
<rect width="245" height="251" fill="white"/>
</clipPath>
</defs>
</svg>
