<svg width="256" height="305" viewBox="0 0 256 305" fill="none" xmlns="http://www.w3.org/2000/svg">
<path d="M39.369 125.349L25.8223 138.946" stroke="#9C65AD" stroke-width="8" stroke-linecap="round" stroke-linejoin="round"/>
<path d="M225.094 138.946L143.252 56.8008" stroke="#9C65AD" stroke-width="8" stroke-linecap="round" stroke-linejoin="round"/>
<path d="M239.054 138.903H16.9468C9.92726 138.903 4.23682 144.615 4.23682 151.66V287.991C4.23682 295.036 9.92726 300.748 16.9468 300.748H239.054C246.073 300.748 251.764 295.036 251.764 287.991V151.66C251.764 144.615 246.073 138.903 239.054 138.903Z" stroke="#9C65AD" stroke-width="8" stroke-linecap="round" stroke-linejoin="round"/>
<path d="M70.0214 103.396C69.7566 102.205 69.5554 101.291 69.3436 100.334C109.867 78.4772 150.211 56.7158 190.65 34.9012C184.326 23.0796 178.183 11.6196 171.966 0C123.71 26.0988 75.7939 52.0275 27.729 78.02C29.6037 81.507 31.2984 84.7919 33.1413 88.0024C33.9251 89.3632 33.8933 90.1393 32.6647 91.3299C24.6257 99.1117 23.5453 111.157 29.9109 120.363C33.3426 125.317 38.2147 128.102 44.2308 129.633V163.173C46.9105 165.204 49.6325 167.192 52.1745 169.392V143.283H199.917V165.533C202.375 162.025 204.948 158.613 207.787 155.434V103.407H70.0214V103.396ZM171.564 16.9456C171.712 16.8818 171.86 16.8287 171.998 16.7649C174.614 21.6232 177.23 26.4815 179.984 31.5843C177.188 33.0833 174.508 34.5185 171.564 36.1025V16.9456ZM154.892 19.2632C154.892 18.7104 155.401 17.9343 155.888 17.6473C158.229 16.2759 160.644 15.0427 163.323 13.6075C163.419 14.5112 163.535 15.1596 163.535 15.8081C163.535 23.3135 163.461 30.8296 163.535 38.335C163.556 39.9934 163.016 40.897 161.554 41.588C159.415 42.5873 157.371 43.778 154.839 45.1387C154.839 36.2194 154.818 27.7466 154.882 19.2738L154.892 19.2632ZM138.126 28.427C138.126 27.9061 138.433 27.1406 138.835 26.9068C141.377 25.4184 143.993 24.0471 146.927 22.4524C146.927 31.3824 146.938 39.8127 146.896 48.2536C146.896 48.7745 146.578 49.5399 146.175 49.7738C143.633 51.2621 141.017 52.6335 138.094 54.2175C138.094 45.2982 138.083 36.8573 138.126 28.4163V28.427ZM121.465 38.335C121.465 36.8573 121.804 35.9005 123.244 35.2307C125.458 34.2102 127.566 32.9451 130.171 31.5312C130.171 40.408 130.193 48.7957 130.129 57.1835C130.129 57.8214 129.642 58.7144 129.102 59.0439C126.782 60.4366 124.357 61.6591 121.687 63.0837C121.582 62.1588 121.454 61.5103 121.454 60.8618C121.454 53.3458 121.507 45.8404 121.465 38.3243V38.335ZM104.794 46.457C104.794 45.936 105.09 45.1706 105.482 44.9474C108.024 43.4697 110.63 42.0983 113.585 40.5037C113.585 49.4442 113.606 57.8745 113.532 66.3154C113.532 66.932 112.928 67.7825 112.367 68.1227C110.037 69.5047 107.611 70.7273 104.762 72.2475C104.762 63.3601 104.751 54.9085 104.794 46.4676V46.457ZM88.0696 56.9284C88.0378 54.8447 88.7051 53.7072 90.5586 52.8993C92.6134 52.0063 94.5517 50.8262 96.8395 49.6143C96.8395 58.4592 96.8607 66.9001 96.7865 75.3411C96.7865 75.9577 96.2252 76.8081 95.6744 77.1377C93.3442 78.5197 90.9293 79.7422 88.2073 81.1987C88.1437 80.0399 88.059 79.2001 88.059 78.3602C88.059 71.2163 88.1861 64.0723 88.059 56.939L88.0696 56.9284ZM77.6792 59.8838C78.4206 59.6499 79.0879 59.2034 80.2318 58.6399C80.2318 67.5274 80.2424 75.9895 80.2 84.4517C80.2 84.962 79.8081 85.6849 79.3739 85.9294C76.8848 87.3752 74.3428 88.7147 71.4407 90.2881C71.4407 83.3461 71.8962 76.7975 71.303 70.3445C70.7946 64.8377 72.4787 61.4997 77.6898 59.8838H77.6792ZM54.7907 74.0016C54.8118 73.2468 55.2143 72.1943 55.7863 71.8329C58.1588 70.3764 60.6584 69.1326 63.4758 67.6124V90.6283C60.7008 89.1399 57.9576 87.7473 55.3096 86.1952C54.886 85.9507 54.7483 84.962 54.7377 84.3135C54.6953 80.8797 54.6741 77.4353 54.7907 74.0016ZM46.7304 76.6699V84.9408C42.748 85.8479 40.0012 84.5722 38.4901 81.1136C41.1168 79.6997 43.7648 78.2646 46.7304 76.6699ZM48.1497 121.883C40.1 121.915 33.7133 115.441 33.6815 107.212C33.6497 99.5476 40.1636 93.0308 48.012 92.8501C55.6592 92.68 62.4484 99.4838 62.4908 107.351C62.5331 115.313 56.0828 121.851 48.1497 121.883ZM66.6109 135.118C63.8889 135.204 61.1668 135.161 57.8728 135.161C60.4784 130.388 62.9144 125.944 65.3293 121.5C66.7063 118.96 68.1255 116.44 69.3648 113.825C70.1379 112.198 70.8688 111.05 73.0083 111.263C75.3596 111.497 77.7533 111.316 80.6872 111.316C76.4188 119.268 72.394 126.784 68.3056 134.268C68.0514 134.736 67.2041 135.108 66.6215 135.129L66.6109 135.118ZM84.8074 135.193C82.3501 135.055 79.8928 135.161 76.853 135.161C80.1894 128.931 83.6529 123.276 86.2796 117.259C88.3768 112.443 91.2365 110.253 96.4264 111.284C97.2737 111.454 98.174 111.305 99.3709 111.305C99.0531 112.081 98.8519 112.698 98.5553 113.251C94.9859 119.938 91.3636 126.603 87.8578 133.322C87.1481 134.672 86.3749 135.278 84.8074 135.193ZM104.476 135.108C101.754 135.225 99.032 135.161 95.9816 135.161C96.3735 134.247 96.6276 133.535 96.9878 132.875C100.472 126.348 104.042 119.853 107.442 113.272C108.257 111.699 109.2 111.146 110.916 111.263C113.278 111.422 115.661 111.305 118.552 111.305C114.326 119.183 110.354 126.635 106.298 134.045C106.001 134.587 105.112 135.087 104.476 135.108ZM122.355 135.204C119.993 135.044 117.61 135.161 114.718 135.161C118.934 127.294 122.906 119.842 126.962 112.443C127.259 111.901 128.148 111.39 128.784 111.369C131.506 111.252 134.228 111.316 137.3 111.316C136.897 112.23 136.643 112.932 136.293 113.591C132.809 120.118 129.239 126.614 125.839 133.194C125.024 134.757 124.092 135.331 122.365 135.214L122.355 135.204ZM141.96 135.087C139.354 135.299 136.728 135.161 133.698 135.161C135.499 131.759 137.13 128.666 138.772 125.593C141.017 121.394 143.199 117.152 145.593 113.038C146.08 112.198 147.383 111.475 148.378 111.38C150.889 111.146 153.431 111.305 156.386 111.305C155.146 113.644 154.087 115.643 153.018 117.641C150.19 122.925 147.404 128.24 144.46 133.471C144.015 134.257 142.839 135.012 141.949 135.087H141.96ZM162.243 134.757C160.008 136.001 156.598 135.108 153.695 135.14C153.526 135.14 153.346 135.087 152.954 135.023C153.145 134.459 153.261 133.896 153.526 133.418C157.138 126.656 160.802 119.916 164.361 113.134C165.06 111.794 165.833 111.188 167.39 111.273C169.848 111.412 172.305 111.305 175.355 111.305C172.273 117.067 169.445 122.404 166.554 127.73C165.219 130.196 164.329 133.598 162.243 134.757ZM182.378 133.407C181.901 134.247 180.598 134.991 179.613 135.087C177.114 135.32 174.572 135.161 171.669 135.161C172.231 133.981 172.601 133.12 173.036 132.301C176.446 125.933 179.92 119.597 183.246 113.187C184.009 111.72 184.888 111.178 186.508 111.273C188.944 111.412 191.391 111.305 194.251 111.305C192.789 114.08 191.497 116.546 190.184 119.002C187.61 123.818 185.089 128.666 182.367 133.407H182.378ZM200.066 135.012H190.533C193.636 129.24 196.602 123.712 199.578 118.184C199.737 118.237 199.907 118.3 200.066 118.354V135.012Z" fill="#7581E5"/>
<path d="M225.093 139.52L125.458 239.524L25.8223 139.52" stroke="#9C65AD" stroke-width="8" stroke-linecap="round" stroke-linejoin="round"/>
<path d="M161.671 252.133C172.771 251.793 173.036 260.287 184.136 259.947C195.236 259.606 194.971 251.102 206.071 250.761C217.171 250.421 217.436 258.915 228.536 258.575" stroke="#FFD708" stroke-width="6" stroke-linecap="round" stroke-linejoin="round"/>
<path d="M161.671 232.699C172.771 232.359 173.036 240.853 184.136 240.513C195.236 240.173 194.971 231.668 206.071 231.328C217.171 230.988 217.436 239.482 228.536 239.142" stroke="#FFD708" stroke-width="6" stroke-linecap="round" stroke-linejoin="round"/>
<path d="M161.671 270.833C172.771 270.492 173.036 278.986 184.136 278.646C195.236 278.306 194.971 269.801 206.071 269.461C217.171 269.121 217.436 277.615 228.536 277.275" stroke="#FFD708" stroke-width="6" stroke-linecap="round" stroke-linejoin="round"/>
</svg>
